<mxfile host="app.diagrams.net" agent="Mozilla/5.0 (Windows NT 10.0; Win64; x64) AppleWebKit/537.36 (KHTML, like Gecko) Chrome/127.0.0.0 Safari/537.36 OPR/113.0.0.0" version="24.8.3">
  <diagram name="Страница — 1" id="wD-770LQDlfPuAB06Tmx">
    <mxGraphModel dx="818" dy="1162" grid="0" gridSize="10" guides="1" tooltips="1" connect="1" arrows="1" fold="1" page="0" pageScale="1" pageWidth="827" pageHeight="1169" math="0" shadow="0">
      <root>
        <mxCell id="0" />
        <mxCell id="1" parent="0" />
        <mxCell id="pDtNUXajQN1vn_wXKqUM-1" value="&lt;span style=&quot;color: rgba(0, 0, 0, 0); font-family: monospace; font-size: 0px; text-align: start; text-wrap: nowrap;&quot;&gt;%3CmxGraphModel%3E%3Croot%3E%3CmxCell%20id%3D%220%22%2F%3E%3CmxCell%20id%3D%221%22%20parent%3D%220%22%2F%3E%3CmxCell%20id%3D%222%22%20value%3D%22%22%20style%3D%22endArrow%3Dclassic%3Bhtml%3D1%3Brounded%3D0%3BentryX%3D0.1%3BentryY%3D0.129%3BentryDx%3D0%3BentryDy%3D0%3Bdashed%3D1%3BexitX%3D0.97%3BexitY%3D0.731%3BexitDx%3D0%3BexitDy%3D0%3BentryPerimeter%3D0%3BexitPerimeter%3D0%3B%22%20edge%3D%221%22%20parent%3D%221%22%3E%3CmxGeometry%20relative%3D%221%22%20as%3D%22geometry%22%3E%3CmxPoint%20x%3D%22411%22%20y%3D%22479%22%20as%3D%22sourcePoint%22%2F%3E%3CmxPoint%20x%3D%22493%22%20y%3D%22495%22%20as%3D%22targetPoint%22%2F%3E%3C%2FmxGeometry%3E%3C%2FmxCell%3E%3CmxCell%20id%3D%223%22%20value%3D%22%26amp%3Blt%3B%26amp%3Blt%3Bextend%26amp%3Bgt%3B%26amp%3Bgt%3B%22%20style%3D%22edgeLabel%3Bresizable%3D0%3Bhtml%3D1%3B%3Balign%3Dcenter%3BverticalAlign%3Dmiddle%3Brotation%3D0%3B%22%20connectable%3D%220%22%20vertex%3D%221%22%20parent%3D%222%22%3E%3CmxGeometry%20relative%3D%221%22%20as%3D%22geometry%22%2F%3E%3C%2FmxCell%3E%3C%2Froot%3E%3C%2FmxGraphModel%3Eя&lt;/span&gt;" style="rounded=0;whiteSpace=wrap;html=1;" parent="1" vertex="1">
          <mxGeometry x="1533.75" y="313" width="724" height="1007" as="geometry" />
        </mxCell>
        <mxCell id="pDtNUXajQN1vn_wXKqUM-2" style="rounded=0;orthogonalLoop=1;jettySize=auto;html=1;exitX=1;exitY=0.3333333333333333;exitDx=0;exitDy=0;exitPerimeter=0;entryX=0;entryY=0.5;entryDx=0;entryDy=0;" parent="1" source="pDtNUXajQN1vn_wXKqUM-3" target="pDtNUXajQN1vn_wXKqUM-71" edge="1">
          <mxGeometry relative="1" as="geometry" />
        </mxCell>
        <mxCell id="pDtNUXajQN1vn_wXKqUM-3" value="Репетитор" style="shape=umlActor;verticalLabelPosition=bottom;verticalAlign=top;html=1;outlineConnect=0;" parent="1" vertex="1">
          <mxGeometry x="1448.9999674479168" y="737.0033170572917" width="30" height="60" as="geometry" />
        </mxCell>
        <mxCell id="pDtNUXajQN1vn_wXKqUM-4" style="rounded=0;orthogonalLoop=1;jettySize=auto;html=1;exitX=1;exitY=0.3333333333333333;exitDx=0;exitDy=0;exitPerimeter=0;entryX=0;entryY=0.5;entryDx=0;entryDy=0;" parent="1" source="pDtNUXajQN1vn_wXKqUM-9" target="pDtNUXajQN1vn_wXKqUM-12" edge="1">
          <mxGeometry relative="1" as="geometry">
            <mxPoint x="2636.999967447917" y="936.0033170572917" as="sourcePoint" />
          </mxGeometry>
        </mxCell>
        <mxCell id="pDtNUXajQN1vn_wXKqUM-5" style="rounded=0;orthogonalLoop=1;jettySize=auto;html=1;exitX=1;exitY=0.3333333333333333;exitDx=0;exitDy=0;exitPerimeter=0;entryX=0;entryY=0.5;entryDx=0;entryDy=0;" parent="1" source="pDtNUXajQN1vn_wXKqUM-9" target="pDtNUXajQN1vn_wXKqUM-81" edge="1">
          <mxGeometry relative="1" as="geometry" />
        </mxCell>
        <mxCell id="pDtNUXajQN1vn_wXKqUM-6" style="rounded=0;orthogonalLoop=1;jettySize=auto;html=1;exitX=1;exitY=0.3333333333333333;exitDx=0;exitDy=0;exitPerimeter=0;entryX=0;entryY=0.5;entryDx=0;entryDy=0;" parent="1" source="pDtNUXajQN1vn_wXKqUM-9" target="pDtNUXajQN1vn_wXKqUM-62" edge="1">
          <mxGeometry relative="1" as="geometry" />
        </mxCell>
        <mxCell id="pDtNUXajQN1vn_wXKqUM-7" style="rounded=0;orthogonalLoop=1;jettySize=auto;html=1;exitX=1;exitY=0.3333333333333333;exitDx=0;exitDy=0;exitPerimeter=0;entryX=0;entryY=0.5;entryDx=0;entryDy=0;" parent="1" source="pDtNUXajQN1vn_wXKqUM-9" target="pDtNUXajQN1vn_wXKqUM-61" edge="1">
          <mxGeometry relative="1" as="geometry" />
        </mxCell>
        <mxCell id="pDtNUXajQN1vn_wXKqUM-9" value="Ученик" style="shape=umlActor;verticalLabelPosition=bottom;verticalAlign=top;html=1;outlineConnect=0;" parent="1" vertex="1">
          <mxGeometry x="1421.9999674479168" y="1266.0033170572917" width="30" height="60" as="geometry" />
        </mxCell>
        <mxCell id="pDtNUXajQN1vn_wXKqUM-11" value="&lt;font size=&quot;1&quot;&gt;Зарегистрировать ученика&lt;/font&gt;" style="ellipse;whiteSpace=wrap;html=1;" parent="1" vertex="1">
          <mxGeometry x="1761.9999674479168" y="363.0033170572917" width="140" height="40" as="geometry" />
        </mxCell>
        <mxCell id="pDtNUXajQN1vn_wXKqUM-12" value="&lt;font style=&quot;font-size: 10px;&quot;&gt;Проcмотр учебных курсов&lt;/font&gt;" style="ellipse;whiteSpace=wrap;html=1;" parent="1" vertex="1">
          <mxGeometry x="1574.4999674479168" y="1204.0033170572917" width="140" height="35" as="geometry" />
        </mxCell>
        <mxCell id="pDtNUXajQN1vn_wXKqUM-13" value="&lt;font style=&quot;font-size: 10px;&quot;&gt;Управление &lt;br&gt;учениками&lt;/font&gt;" style="ellipse;whiteSpace=wrap;html=1;" parent="1" vertex="1">
          <mxGeometry x="1561.9999674479168" y="433.0033170572917" width="130" height="35" as="geometry" />
        </mxCell>
        <mxCell id="pDtNUXajQN1vn_wXKqUM-14" value="&lt;font style=&quot;font-size: 10px;&quot;&gt;Выбрать ученика&lt;/font&gt;" style="ellipse;whiteSpace=wrap;html=1;" parent="1" vertex="1">
          <mxGeometry x="1781.9999674479168" y="473.0033170572917" width="140" height="40" as="geometry" />
        </mxCell>
        <mxCell id="pDtNUXajQN1vn_wXKqUM-15" value="&lt;font style=&quot;font-size: 9px;&quot;&gt;Работа с учебными курсами&lt;/font&gt;" style="ellipse;whiteSpace=wrap;html=1;" parent="1" vertex="1">
          <mxGeometry x="1565.4999674479168" y="740.0033170572917" width="115" height="40" as="geometry" />
        </mxCell>
        <mxCell id="pDtNUXajQN1vn_wXKqUM-17" value="" style="endArrow=classic;html=1;rounded=0;entryX=0;entryY=0.5;entryDx=0;entryDy=0;endFill=1;exitX=1;exitY=0.3333333333333333;exitDx=0;exitDy=0;exitPerimeter=0;" parent="1" source="pDtNUXajQN1vn_wXKqUM-3" target="pDtNUXajQN1vn_wXKqUM-13" edge="1">
          <mxGeometry width="50" height="50" relative="1" as="geometry">
            <mxPoint x="1481.9999674479168" y="756.0033170572917" as="sourcePoint" />
            <mxPoint x="1586.9999674479168" y="483.0033170572917" as="targetPoint" />
          </mxGeometry>
        </mxCell>
        <mxCell id="pDtNUXajQN1vn_wXKqUM-18" value="" style="endArrow=classic;html=1;rounded=0;endFill=1;entryX=0.006;entryY=0.434;entryDx=0;entryDy=0;entryPerimeter=0;" parent="1" target="pDtNUXajQN1vn_wXKqUM-15" edge="1">
          <mxGeometry width="50" height="50" relative="1" as="geometry">
            <mxPoint x="1476.9999674479168" y="757.0033170572917" as="sourcePoint" />
            <mxPoint x="1585.9999674479168" y="578.0033170572917" as="targetPoint" />
          </mxGeometry>
        </mxCell>
        <mxCell id="pDtNUXajQN1vn_wXKqUM-19" value="&lt;font style=&quot;font-size: 10px;&quot;&gt;Управление занятиями в календаре&lt;/font&gt;" style="ellipse;whiteSpace=wrap;html=1;" parent="1" vertex="1">
          <mxGeometry x="1561.9999674479168" y="648.0033170572917" width="144" height="46" as="geometry" />
        </mxCell>
        <mxCell id="pDtNUXajQN1vn_wXKqUM-20" value="" style="endArrow=classic;html=1;rounded=0;entryX=0;entryY=0.5;entryDx=0;entryDy=0;exitX=1;exitY=0.3333333333333333;exitDx=0;exitDy=0;exitPerimeter=0;" parent="1" source="pDtNUXajQN1vn_wXKqUM-3" target="pDtNUXajQN1vn_wXKqUM-19" edge="1">
          <mxGeometry width="50" height="50" relative="1" as="geometry">
            <mxPoint x="1481.9999674479168" y="513.0033170572917" as="sourcePoint" />
            <mxPoint x="1751.9999674479168" y="653.0033170572917" as="targetPoint" />
          </mxGeometry>
        </mxCell>
        <mxCell id="pDtNUXajQN1vn_wXKqUM-21" value="&lt;span style=&quot;font-size: 10px;&quot;&gt;Изменить данные ученика&lt;/span&gt;" style="ellipse;whiteSpace=wrap;html=1;" parent="1" vertex="1">
          <mxGeometry x="1781.9999674479168" y="414.0033170572917" width="130" height="40" as="geometry" />
        </mxCell>
        <mxCell id="pDtNUXajQN1vn_wXKqUM-22" value="" style="endArrow=classic;html=1;rounded=0;dashed=1;exitX=0;exitY=0.5;exitDx=0;exitDy=0;entryX=1;entryY=0.5;entryDx=0;entryDy=0;" parent="1" source="pDtNUXajQN1vn_wXKqUM-21" target="pDtNUXajQN1vn_wXKqUM-13" edge="1">
          <mxGeometry relative="1" as="geometry">
            <mxPoint x="1766.9999674479168" y="453.0033170572917" as="sourcePoint" />
            <mxPoint x="1959.9999674479168" y="462.0033170572917" as="targetPoint" />
          </mxGeometry>
        </mxCell>
        <mxCell id="pDtNUXajQN1vn_wXKqUM-23" value="&amp;lt;&amp;lt;extend&amp;gt;&amp;gt;" style="edgeLabel;resizable=0;html=1;;align=center;verticalAlign=middle;rotation=0;" parent="pDtNUXajQN1vn_wXKqUM-22" connectable="0" vertex="1">
          <mxGeometry relative="1" as="geometry" />
        </mxCell>
        <mxCell id="pDtNUXajQN1vn_wXKqUM-24" value="&lt;span style=&quot;font-size: 10px;&quot;&gt;Добавить занятие&lt;/span&gt;" style="ellipse;whiteSpace=wrap;html=1;" parent="1" vertex="1">
          <mxGeometry x="1754.9999674479168" y="582.0033170572917" width="140" height="40" as="geometry" />
        </mxCell>
        <mxCell id="pDtNUXajQN1vn_wXKqUM-25" value="" style="endArrow=classic;html=1;rounded=0;entryX=1;entryY=0;entryDx=0;entryDy=0;dashed=1;exitX=0.004;exitY=0.561;exitDx=0;exitDy=0;exitPerimeter=0;" parent="1" source="pDtNUXajQN1vn_wXKqUM-24" target="pDtNUXajQN1vn_wXKqUM-19" edge="1">
          <mxGeometry relative="1" as="geometry">
            <mxPoint x="1896.9999674479168" y="593.0033170572917" as="sourcePoint" />
            <mxPoint x="2079.999967447917" y="592.0033170572917" as="targetPoint" />
          </mxGeometry>
        </mxCell>
        <mxCell id="pDtNUXajQN1vn_wXKqUM-26" value="&amp;lt;&amp;lt;extend&amp;gt;&amp;gt;" style="edgeLabel;resizable=0;html=1;;align=center;verticalAlign=middle;rotation=0;" parent="pDtNUXajQN1vn_wXKqUM-25" connectable="0" vertex="1">
          <mxGeometry relative="1" as="geometry" />
        </mxCell>
        <mxCell id="pDtNUXajQN1vn_wXKqUM-27" value="&lt;font style=&quot;font-size: 10px;&quot;&gt;Изменить занятие&lt;/font&gt;" style="ellipse;whiteSpace=wrap;html=1;" parent="1" vertex="1">
          <mxGeometry x="1898.9999674479168" y="611.0033170572917" width="140" height="40" as="geometry" />
        </mxCell>
        <mxCell id="pDtNUXajQN1vn_wXKqUM-28" value="" style="endArrow=classic;html=1;rounded=0;entryX=1;entryY=0.5;entryDx=0;entryDy=0;dashed=1;exitX=0;exitY=0.5;exitDx=0;exitDy=0;" parent="1" source="pDtNUXajQN1vn_wXKqUM-27" target="pDtNUXajQN1vn_wXKqUM-19" edge="1">
          <mxGeometry relative="1" as="geometry">
            <mxPoint x="1896.9999674479168" y="653.0033170572917" as="sourcePoint" />
            <mxPoint x="2079.999967447917" y="652.0033170572917" as="targetPoint" />
          </mxGeometry>
        </mxCell>
        <mxCell id="pDtNUXajQN1vn_wXKqUM-29" value="&amp;lt;&amp;lt;extend&amp;gt;&amp;gt;" style="edgeLabel;resizable=0;html=1;;align=center;verticalAlign=middle;rotation=0;" parent="pDtNUXajQN1vn_wXKqUM-28" connectable="0" vertex="1">
          <mxGeometry relative="1" as="geometry" />
        </mxCell>
        <mxCell id="pDtNUXajQN1vn_wXKqUM-30" value="&lt;font style=&quot;font-size: 10px;&quot;&gt;Удалить занятие&lt;/font&gt;" style="ellipse;whiteSpace=wrap;html=1;" parent="1" vertex="1">
          <mxGeometry x="1827.9999674479168" y="665.0033170572917" width="135.5" height="35" as="geometry" />
        </mxCell>
        <mxCell id="pDtNUXajQN1vn_wXKqUM-31" value="" style="endArrow=classic;html=1;rounded=0;entryX=1;entryY=1;entryDx=0;entryDy=0;dashed=1;exitX=0;exitY=0.5;exitDx=0;exitDy=0;" parent="1" source="pDtNUXajQN1vn_wXKqUM-30" target="pDtNUXajQN1vn_wXKqUM-19" edge="1">
          <mxGeometry relative="1" as="geometry">
            <mxPoint x="1794.4999674479168" y="633.0033170572917" as="sourcePoint" />
            <mxPoint x="2058.499967447917" y="692.0033170572917" as="targetPoint" />
          </mxGeometry>
        </mxCell>
        <mxCell id="pDtNUXajQN1vn_wXKqUM-32" value="&amp;lt;&amp;lt;extend&amp;gt;&amp;gt;" style="edgeLabel;resizable=0;html=1;;align=center;verticalAlign=middle;rotation=0;" parent="pDtNUXajQN1vn_wXKqUM-31" connectable="0" vertex="1">
          <mxGeometry relative="1" as="geometry" />
        </mxCell>
        <mxCell id="pDtNUXajQN1vn_wXKqUM-33" value="&lt;font style=&quot;font-size: 10px;&quot;&gt;Добавить курс&lt;/font&gt;" style="ellipse;whiteSpace=wrap;html=1;" parent="1" vertex="1">
          <mxGeometry x="1812.9999674479168" y="715.0033170572917" width="130" height="40" as="geometry" />
        </mxCell>
        <mxCell id="pDtNUXajQN1vn_wXKqUM-34" value="" style="endArrow=classic;html=1;rounded=0;dashed=1;exitX=0;exitY=0.5;exitDx=0;exitDy=0;entryX=1;entryY=0;entryDx=0;entryDy=0;" parent="1" source="pDtNUXajQN1vn_wXKqUM-33" target="pDtNUXajQN1vn_wXKqUM-15" edge="1">
          <mxGeometry relative="1" as="geometry">
            <mxPoint x="1816.9999674479168" y="668.0033170572917" as="sourcePoint" />
            <mxPoint x="1771.9999674479168" y="703.0033170572917" as="targetPoint" />
          </mxGeometry>
        </mxCell>
        <mxCell id="pDtNUXajQN1vn_wXKqUM-35" value="&amp;lt;&amp;lt;extend&amp;gt;&amp;gt;" style="edgeLabel;resizable=0;html=1;;align=center;verticalAlign=middle;rotation=0;" parent="pDtNUXajQN1vn_wXKqUM-34" connectable="0" vertex="1">
          <mxGeometry relative="1" as="geometry" />
        </mxCell>
        <mxCell id="pDtNUXajQN1vn_wXKqUM-36" value="&lt;font style=&quot;font-size: 10px;&quot;&gt;Изменить курс&lt;/font&gt;" style="ellipse;whiteSpace=wrap;html=1;" parent="1" vertex="1">
          <mxGeometry x="1866.9999674479168" y="770.0033170572917" width="130" height="40" as="geometry" />
        </mxCell>
        <mxCell id="pDtNUXajQN1vn_wXKqUM-37" value="" style="endArrow=classic;html=1;rounded=0;entryX=1;entryY=0.5;entryDx=0;entryDy=0;dashed=1;exitX=0;exitY=0.5;exitDx=0;exitDy=0;" parent="1" source="pDtNUXajQN1vn_wXKqUM-36" target="pDtNUXajQN1vn_wXKqUM-15" edge="1">
          <mxGeometry relative="1" as="geometry">
            <mxPoint x="1821.9999674479168" y="773.0033170572917" as="sourcePoint" />
            <mxPoint x="2088.499967447917" y="882.0033170572917" as="targetPoint" />
          </mxGeometry>
        </mxCell>
        <mxCell id="pDtNUXajQN1vn_wXKqUM-38" value="&amp;lt;&amp;lt;extend&amp;gt;&amp;gt;" style="edgeLabel;resizable=0;html=1;;align=center;verticalAlign=middle;rotation=0;" parent="pDtNUXajQN1vn_wXKqUM-37" connectable="0" vertex="1">
          <mxGeometry relative="1" as="geometry" />
        </mxCell>
        <mxCell id="pDtNUXajQN1vn_wXKqUM-39" value="" style="endArrow=classic;html=1;rounded=0;dashed=1;exitX=0;exitY=0.5;exitDx=0;exitDy=0;entryX=1;entryY=0.5;entryDx=0;entryDy=0;" parent="1" source="pDtNUXajQN1vn_wXKqUM-11" target="pDtNUXajQN1vn_wXKqUM-13" edge="1">
          <mxGeometry relative="1" as="geometry">
            <mxPoint x="1758.4999674479168" y="463.0033170572917" as="sourcePoint" />
            <mxPoint x="1837.4999674479168" y="443.0033170572917" as="targetPoint" />
          </mxGeometry>
        </mxCell>
        <mxCell id="pDtNUXajQN1vn_wXKqUM-40" value="&amp;lt;&amp;lt;extend&amp;gt;&amp;gt;" style="edgeLabel;resizable=0;html=1;;align=center;verticalAlign=middle;rotation=0;" parent="pDtNUXajQN1vn_wXKqUM-39" connectable="0" vertex="1">
          <mxGeometry relative="1" as="geometry" />
        </mxCell>
        <mxCell id="pDtNUXajQN1vn_wXKqUM-41" value="&lt;font size=&quot;1&quot;&gt;Изменить ФИО&lt;/font&gt;" style="ellipse;whiteSpace=wrap;html=1;" parent="1" vertex="1">
          <mxGeometry x="1996.9999674479168" y="447.0033170572917" width="140" height="40" as="geometry" />
        </mxCell>
        <mxCell id="pDtNUXajQN1vn_wXKqUM-42" value="" style="endArrow=classic;html=1;rounded=0;exitX=0;exitY=0.5;exitDx=0;exitDy=0;dashed=1;entryX=1;entryY=0.5;entryDx=0;entryDy=0;" parent="1" source="pDtNUXajQN1vn_wXKqUM-41" target="pDtNUXajQN1vn_wXKqUM-21" edge="1">
          <mxGeometry relative="1" as="geometry">
            <mxPoint x="1898.9999674479168" y="433.0033170572917" as="sourcePoint" />
            <mxPoint x="1980.9999674479168" y="423.0033170572917" as="targetPoint" />
          </mxGeometry>
        </mxCell>
        <mxCell id="pDtNUXajQN1vn_wXKqUM-43" value="&amp;lt;&amp;lt;extend&amp;gt;&amp;gt;" style="edgeLabel;resizable=0;html=1;;align=center;verticalAlign=middle;" parent="pDtNUXajQN1vn_wXKqUM-42" connectable="0" vertex="1">
          <mxGeometry relative="1" as="geometry" />
        </mxCell>
        <mxCell id="pDtNUXajQN1vn_wXKqUM-44" value="&lt;font size=&quot;1&quot;&gt;Искать по курсу&lt;/font&gt;" style="ellipse;whiteSpace=wrap;html=1;" parent="1" vertex="1">
          <mxGeometry x="1825.7499674479168" y="524.0033170572917" width="140" height="40" as="geometry" />
        </mxCell>
        <mxCell id="pDtNUXajQN1vn_wXKqUM-45" value="" style="endArrow=classic;html=1;rounded=0;exitX=0;exitY=0.5;exitDx=0;exitDy=0;dashed=1;entryX=0.968;entryY=0.664;entryDx=0;entryDy=0;entryPerimeter=0;" parent="1" source="pDtNUXajQN1vn_wXKqUM-44" target="pDtNUXajQN1vn_wXKqUM-63" edge="1">
          <mxGeometry relative="1" as="geometry">
            <mxPoint x="1901.9999674479168" y="493.0033170572917" as="sourcePoint" />
            <mxPoint x="1983.9999674479168" y="483.0033170572917" as="targetPoint" />
          </mxGeometry>
        </mxCell>
        <mxCell id="pDtNUXajQN1vn_wXKqUM-46" value="&amp;lt;&amp;lt;extend&amp;gt;&amp;gt;" style="edgeLabel;resizable=0;html=1;;align=center;verticalAlign=middle;" parent="pDtNUXajQN1vn_wXKqUM-45" connectable="0" vertex="1">
          <mxGeometry relative="1" as="geometry" />
        </mxCell>
        <mxCell id="pDtNUXajQN1vn_wXKqUM-47" value="&lt;font size=&quot;1&quot;&gt;Добавить текст&lt;/font&gt;" style="ellipse;whiteSpace=wrap;html=1;" parent="1" vertex="1">
          <mxGeometry x="2092.999967447917" y="643.0033170572917" width="140" height="40" as="geometry" />
        </mxCell>
        <mxCell id="pDtNUXajQN1vn_wXKqUM-48" value="&lt;font size=&quot;1&quot;&gt;Добавить видео&lt;/font&gt;" style="ellipse;whiteSpace=wrap;html=1;" parent="1" vertex="1">
          <mxGeometry x="2085.999967447917" y="689.0033170572917" width="140" height="40" as="geometry" />
        </mxCell>
        <mxCell id="pDtNUXajQN1vn_wXKqUM-50" value="" style="endArrow=classic;html=1;rounded=0;exitX=0;exitY=0.5;exitDx=0;exitDy=0;entryX=1;entryY=0;entryDx=0;entryDy=0;dashed=1;" parent="1" source="pDtNUXajQN1vn_wXKqUM-47" target="pDtNUXajQN1vn_wXKqUM-33" edge="1">
          <mxGeometry relative="1" as="geometry">
            <mxPoint x="1911.9999674479168" y="593.0033170572917" as="sourcePoint" />
            <mxPoint x="1991.9999674479168" y="593.0033170572917" as="targetPoint" />
          </mxGeometry>
        </mxCell>
        <mxCell id="pDtNUXajQN1vn_wXKqUM-51" value="&amp;lt;&amp;lt;extend&amp;gt;&amp;gt;" style="edgeLabel;resizable=0;html=1;;align=center;verticalAlign=middle;" parent="pDtNUXajQN1vn_wXKqUM-50" connectable="0" vertex="1">
          <mxGeometry relative="1" as="geometry" />
        </mxCell>
        <mxCell id="pDtNUXajQN1vn_wXKqUM-52" value="" style="endArrow=classic;html=1;rounded=0;exitX=0;exitY=0.5;exitDx=0;exitDy=0;entryX=0.967;entryY=0.378;entryDx=0;entryDy=0;dashed=1;entryPerimeter=0;" parent="1" source="pDtNUXajQN1vn_wXKqUM-48" target="pDtNUXajQN1vn_wXKqUM-33" edge="1">
          <mxGeometry relative="1" as="geometry">
            <mxPoint x="1911.9999674479168" y="713.0033170572917" as="sourcePoint" />
            <mxPoint x="1988.9999674479168" y="663.0033170572917" as="targetPoint" />
          </mxGeometry>
        </mxCell>
        <mxCell id="pDtNUXajQN1vn_wXKqUM-53" value="&amp;lt;&amp;lt;extend&amp;gt;&amp;gt;" style="edgeLabel;resizable=0;html=1;;align=center;verticalAlign=middle;" parent="pDtNUXajQN1vn_wXKqUM-52" connectable="0" vertex="1">
          <mxGeometry relative="1" as="geometry" />
        </mxCell>
        <mxCell id="pDtNUXajQN1vn_wXKqUM-56" value="&lt;font style=&quot;font-size: 10px;&quot;&gt;Удалить курс&lt;/font&gt;" style="ellipse;whiteSpace=wrap;html=1;" parent="1" vertex="1">
          <mxGeometry x="1982.9999674479168" y="822.0033170572917" width="113" height="33" as="geometry" />
        </mxCell>
        <mxCell id="pDtNUXajQN1vn_wXKqUM-57" value="" style="endArrow=classic;html=1;rounded=0;entryX=0.825;entryY=0.932;entryDx=0;entryDy=0;dashed=1;exitX=0;exitY=0.5;exitDx=0;exitDy=0;entryPerimeter=0;" parent="1" source="pDtNUXajQN1vn_wXKqUM-56" target="pDtNUXajQN1vn_wXKqUM-15" edge="1">
          <mxGeometry relative="1" as="geometry">
            <mxPoint x="1712.9999674479168" y="742.0033170572917" as="sourcePoint" />
            <mxPoint x="1794.9999674479168" y="758.0033170572917" as="targetPoint" />
          </mxGeometry>
        </mxCell>
        <mxCell id="pDtNUXajQN1vn_wXKqUM-58" value="&amp;lt;&amp;lt;extend&amp;gt;&amp;gt;" style="edgeLabel;resizable=0;html=1;;align=center;verticalAlign=middle;rotation=0;" parent="pDtNUXajQN1vn_wXKqUM-57" connectable="0" vertex="1">
          <mxGeometry relative="1" as="geometry" />
        </mxCell>
        <mxCell id="pDtNUXajQN1vn_wXKqUM-59" style="rounded=0;orthogonalLoop=1;jettySize=auto;html=1;exitX=0;exitY=0.5;exitDx=0;exitDy=0;dashed=1;entryX=1;entryY=0.5;entryDx=0;entryDy=0;" parent="1" source="pDtNUXajQN1vn_wXKqUM-82" target="pDtNUXajQN1vn_wXKqUM-61" edge="1">
          <mxGeometry relative="1" as="geometry" />
        </mxCell>
        <mxCell id="pDtNUXajQN1vn_wXKqUM-60" value="&amp;lt;&amp;lt;extend&amp;gt;&amp;gt;" style="edgeLabel;html=1;align=center;verticalAlign=middle;resizable=0;points=[];" parent="pDtNUXajQN1vn_wXKqUM-59" vertex="1" connectable="0">
          <mxGeometry x="0.0326" y="-1" relative="1" as="geometry">
            <mxPoint as="offset" />
          </mxGeometry>
        </mxCell>
        <mxCell id="pDtNUXajQN1vn_wXKqUM-61" value="&lt;font style=&quot;font-size: 10px;&quot;&gt;Просмотреть прогресс&lt;/font&gt;" style="ellipse;whiteSpace=wrap;html=1;" parent="1" vertex="1">
          <mxGeometry x="1578.9999674479168" y="1145.0033170572917" width="125" height="36" as="geometry" />
        </mxCell>
        <mxCell id="pDtNUXajQN1vn_wXKqUM-62" value="&lt;font style=&quot;font-size: 10px;&quot;&gt;Просмотр занятий в календаре&lt;/font&gt;" style="ellipse;whiteSpace=wrap;html=1;" parent="1" vertex="1">
          <mxGeometry x="1698.9999674479168" y="1260.0033170572917" width="160.5" height="45" as="geometry" />
        </mxCell>
        <mxCell id="pDtNUXajQN1vn_wXKqUM-63" value="&lt;span style=&quot;font-size: 10px;&quot;&gt;Остлеживание результатов учеников&lt;/span&gt;" style="ellipse;whiteSpace=wrap;html=1;" parent="1" vertex="1">
          <mxGeometry x="1565.4999674479168" y="520.0033170572917" width="123" height="48" as="geometry" />
        </mxCell>
        <mxCell id="pDtNUXajQN1vn_wXKqUM-64" value="" style="endArrow=classic;html=1;rounded=0;entryX=1;entryY=0.5;entryDx=0;entryDy=0;dashed=1;exitX=0;exitY=0.5;exitDx=0;exitDy=0;" parent="1" source="pDtNUXajQN1vn_wXKqUM-14" target="pDtNUXajQN1vn_wXKqUM-63" edge="1">
          <mxGeometry relative="1" as="geometry">
            <mxPoint x="1696.9999674479168" y="507.0033170572917" as="sourcePoint" />
            <mxPoint x="1766.9999674479168" y="439.0033170572917" as="targetPoint" />
          </mxGeometry>
        </mxCell>
        <mxCell id="pDtNUXajQN1vn_wXKqUM-65" value="&amp;lt;&amp;lt;extend&amp;gt;&amp;gt;" style="edgeLabel;resizable=0;html=1;;align=center;verticalAlign=middle;rotation=0;" parent="pDtNUXajQN1vn_wXKqUM-64" connectable="0" vertex="1">
          <mxGeometry relative="1" as="geometry" />
        </mxCell>
        <mxCell id="pDtNUXajQN1vn_wXKqUM-66" style="edgeStyle=orthogonalEdgeStyle;rounded=0;orthogonalLoop=1;jettySize=auto;html=1;exitX=0.5;exitY=1;exitDx=0;exitDy=0;" parent="1" source="pDtNUXajQN1vn_wXKqUM-21" target="pDtNUXajQN1vn_wXKqUM-21" edge="1">
          <mxGeometry relative="1" as="geometry" />
        </mxCell>
        <mxCell id="pDtNUXajQN1vn_wXKqUM-67" value="&lt;font size=&quot;1&quot;&gt;Добавить изображение&lt;/font&gt;" style="ellipse;whiteSpace=wrap;html=1;" parent="1" vertex="1">
          <mxGeometry x="2049.999967447917" y="747.0033170572917" width="140" height="40" as="geometry" />
        </mxCell>
        <mxCell id="pDtNUXajQN1vn_wXKqUM-68" value="" style="endArrow=classic;html=1;rounded=0;entryX=0.933;entryY=0.788;entryDx=0;entryDy=0;dashed=1;exitX=0;exitY=0.5;exitDx=0;exitDy=0;entryPerimeter=0;" parent="1" source="pDtNUXajQN1vn_wXKqUM-67" target="pDtNUXajQN1vn_wXKqUM-33" edge="1">
          <mxGeometry relative="1" as="geometry">
            <mxPoint x="1968.9999674479168" y="807.0033170572917" as="sourcePoint" />
            <mxPoint x="2112.999967447917" y="851.0033170572917" as="targetPoint" />
          </mxGeometry>
        </mxCell>
        <mxCell id="pDtNUXajQN1vn_wXKqUM-69" value="&amp;lt;&amp;lt;extend&amp;gt;&amp;gt;" style="edgeLabel;resizable=0;html=1;;align=center;verticalAlign=middle;" parent="pDtNUXajQN1vn_wXKqUM-68" connectable="0" vertex="1">
          <mxGeometry relative="1" as="geometry" />
        </mxCell>
        <mxCell id="pDtNUXajQN1vn_wXKqUM-70" style="rounded=0;orthogonalLoop=1;jettySize=auto;html=1;exitX=1;exitY=0.3333333333333333;exitDx=0;exitDy=0;exitPerimeter=0;entryX=0;entryY=0.5;entryDx=0;entryDy=0;" parent="1" source="pDtNUXajQN1vn_wXKqUM-3" target="pDtNUXajQN1vn_wXKqUM-63" edge="1">
          <mxGeometry relative="1" as="geometry" />
        </mxCell>
        <mxCell id="pDtNUXajQN1vn_wXKqUM-71" value="&lt;font style=&quot;font-size: 9px;&quot;&gt;Работа с учебными тестами&lt;/font&gt;" style="ellipse;whiteSpace=wrap;html=1;" parent="1" vertex="1">
          <mxGeometry x="1583.9999674479168" y="841.0033170572917" width="115" height="40" as="geometry" />
        </mxCell>
        <mxCell id="pDtNUXajQN1vn_wXKqUM-72" value="&lt;font style=&quot;font-size: 10px;&quot;&gt;Добавить тест&lt;/font&gt;" style="ellipse;whiteSpace=wrap;html=1;" parent="1" vertex="1">
          <mxGeometry x="1786.9999674479168" y="829.0033170572917" width="130" height="40" as="geometry" />
        </mxCell>
        <mxCell id="pDtNUXajQN1vn_wXKqUM-73" value="" style="endArrow=classic;html=1;rounded=0;dashed=1;exitX=0;exitY=0.5;exitDx=0;exitDy=0;entryX=1;entryY=0;entryDx=0;entryDy=0;" parent="1" source="pDtNUXajQN1vn_wXKqUM-72" target="pDtNUXajQN1vn_wXKqUM-71" edge="1">
          <mxGeometry relative="1" as="geometry">
            <mxPoint x="1684.9999674479168" y="895.0033170572917" as="sourcePoint" />
            <mxPoint x="1780.9999674479168" y="829.0033170572917" as="targetPoint" />
          </mxGeometry>
        </mxCell>
        <mxCell id="pDtNUXajQN1vn_wXKqUM-74" value="&amp;lt;&amp;lt;extend&amp;gt;&amp;gt;" style="edgeLabel;resizable=0;html=1;;align=center;verticalAlign=middle;rotation=0;" parent="pDtNUXajQN1vn_wXKqUM-73" connectable="0" vertex="1">
          <mxGeometry relative="1" as="geometry" />
        </mxCell>
        <mxCell id="pDtNUXajQN1vn_wXKqUM-75" value="&lt;font style=&quot;font-size: 10px;&quot;&gt;Изменить тест&lt;/font&gt;" style="ellipse;whiteSpace=wrap;html=1;" parent="1" vertex="1">
          <mxGeometry x="1880.9999674479168" y="885.0033170572917" width="130" height="40" as="geometry" />
        </mxCell>
        <mxCell id="pDtNUXajQN1vn_wXKqUM-76" value="" style="endArrow=classic;html=1;rounded=0;entryX=1;entryY=0.5;entryDx=0;entryDy=0;dashed=1;exitX=0;exitY=0.5;exitDx=0;exitDy=0;" parent="1" source="pDtNUXajQN1vn_wXKqUM-75" target="pDtNUXajQN1vn_wXKqUM-71" edge="1">
          <mxGeometry relative="1" as="geometry">
            <mxPoint x="1685.9999674479168" y="895.0033170572917" as="sourcePoint" />
            <mxPoint x="2097.499967447917" y="1008.0033170572917" as="targetPoint" />
          </mxGeometry>
        </mxCell>
        <mxCell id="pDtNUXajQN1vn_wXKqUM-77" value="&amp;lt;&amp;lt;extend&amp;gt;&amp;gt;" style="edgeLabel;resizable=0;html=1;;align=center;verticalAlign=middle;rotation=0;" parent="pDtNUXajQN1vn_wXKqUM-76" connectable="0" vertex="1">
          <mxGeometry relative="1" as="geometry" />
        </mxCell>
        <mxCell id="pDtNUXajQN1vn_wXKqUM-78" value="&lt;font style=&quot;font-size: 10px;&quot;&gt;Удалить тест&lt;/font&gt;" style="ellipse;whiteSpace=wrap;html=1;" parent="1" vertex="1">
          <mxGeometry x="1738.9999674479168" y="896.0033170572917" width="125" height="36" as="geometry" />
        </mxCell>
        <mxCell id="pDtNUXajQN1vn_wXKqUM-79" value="" style="endArrow=classic;html=1;rounded=0;entryX=1;entryY=1;entryDx=0;entryDy=0;dashed=1;exitX=0;exitY=0.5;exitDx=0;exitDy=0;" parent="1" source="pDtNUXajQN1vn_wXKqUM-78" target="pDtNUXajQN1vn_wXKqUM-71" edge="1">
          <mxGeometry relative="1" as="geometry">
            <mxPoint x="1691.9999674479168" y="844.0033170572917" as="sourcePoint" />
            <mxPoint x="1803.9999674479168" y="884.0033170572917" as="targetPoint" />
          </mxGeometry>
        </mxCell>
        <mxCell id="pDtNUXajQN1vn_wXKqUM-80" value="&amp;lt;&amp;lt;extend&amp;gt;&amp;gt;" style="edgeLabel;resizable=0;html=1;;align=center;verticalAlign=middle;rotation=0;" parent="pDtNUXajQN1vn_wXKqUM-79" connectable="0" vertex="1">
          <mxGeometry relative="1" as="geometry" />
        </mxCell>
        <mxCell id="pDtNUXajQN1vn_wXKqUM-81" value="&lt;font style=&quot;font-size: 10px;&quot;&gt;Выполнение учебных тестов&lt;/font&gt;" style="ellipse;whiteSpace=wrap;html=1;" parent="1" vertex="1">
          <mxGeometry x="1771.9999674479168" y="1211.0033170572917" width="140" height="35" as="geometry" />
        </mxCell>
        <mxCell id="pDtNUXajQN1vn_wXKqUM-82" value="&lt;font size=&quot;1&quot;&gt;Искать по курсу&lt;/font&gt;" style="ellipse;whiteSpace=wrap;html=1;" parent="1" vertex="1">
          <mxGeometry x="1802.9999674479168" y="1141.0033170572917" width="140" height="40" as="geometry" />
        </mxCell>
        <mxCell id="pDtNUXajQN1vn_wXKqUM-84" style="rounded=0;orthogonalLoop=1;jettySize=auto;html=1;exitX=1;exitY=0.3333333333333333;exitDx=0;exitDy=0;exitPerimeter=0;entryX=0;entryY=0.5;entryDx=0;entryDy=0;" parent="1" source="pDtNUXajQN1vn_wXKqUM-86" target="pDtNUXajQN1vn_wXKqUM-95" edge="1">
          <mxGeometry relative="1" as="geometry" />
        </mxCell>
        <mxCell id="pDtNUXajQN1vn_wXKqUM-86" value="Администратор" style="shape=umlActor;verticalLabelPosition=bottom;verticalAlign=top;html=1;outlineConnect=0;" parent="1" vertex="1">
          <mxGeometry x="1469.9999674479168" y="1064.0033170572917" width="30" height="60" as="geometry" />
        </mxCell>
        <mxCell id="pDtNUXajQN1vn_wXKqUM-87" value="&lt;font style=&quot;font-size: 10px;&quot;&gt;Авторизация&lt;/font&gt;" style="ellipse;whiteSpace=wrap;html=1;" parent="1" vertex="1">
          <mxGeometry x="1598.9999674479168" y="952.0033170572917" width="119" height="40" as="geometry" />
        </mxCell>
        <mxCell id="pDtNUXajQN1vn_wXKqUM-89" style="rounded=0;orthogonalLoop=1;jettySize=auto;html=1;exitX=0;exitY=0.5;exitDx=0;exitDy=0;entryX=1;entryY=0;entryDx=0;entryDy=0;dashed=1;" parent="1" source="pDtNUXajQN1vn_wXKqUM-96" target="pDtNUXajQN1vn_wXKqUM-95" edge="1">
          <mxGeometry relative="1" as="geometry" />
        </mxCell>
        <mxCell id="pDtNUXajQN1vn_wXKqUM-90" value="&amp;lt;&amp;lt;extend&amp;gt;&amp;gt;" style="edgeLabel;html=1;align=center;verticalAlign=middle;resizable=0;points=[];" parent="pDtNUXajQN1vn_wXKqUM-89" vertex="1" connectable="0">
          <mxGeometry x="0.0891" y="1" relative="1" as="geometry">
            <mxPoint as="offset" />
          </mxGeometry>
        </mxCell>
        <mxCell id="pDtNUXajQN1vn_wXKqUM-91" style="rounded=0;orthogonalLoop=1;jettySize=auto;html=1;exitX=-0.001;exitY=0.588;exitDx=0;exitDy=0;entryX=0.954;entryY=0.343;entryDx=0;entryDy=0;dashed=1;entryPerimeter=0;exitPerimeter=0;" parent="1" source="pDtNUXajQN1vn_wXKqUM-97" target="pDtNUXajQN1vn_wXKqUM-95" edge="1">
          <mxGeometry relative="1" as="geometry" />
        </mxCell>
        <mxCell id="pDtNUXajQN1vn_wXKqUM-92" value="&amp;lt;&amp;lt;extend&amp;gt;&amp;gt;" style="edgeLabel;html=1;align=center;verticalAlign=middle;resizable=0;points=[];" parent="pDtNUXajQN1vn_wXKqUM-91" vertex="1" connectable="0">
          <mxGeometry x="-0.1355" y="-1" relative="1" as="geometry">
            <mxPoint as="offset" />
          </mxGeometry>
        </mxCell>
        <mxCell id="pDtNUXajQN1vn_wXKqUM-93" style="rounded=0;orthogonalLoop=1;jettySize=auto;html=1;exitX=0;exitY=0.5;exitDx=0;exitDy=0;entryX=1;entryY=0.5;entryDx=0;entryDy=0;dashed=1;" parent="1" source="pDtNUXajQN1vn_wXKqUM-98" target="pDtNUXajQN1vn_wXKqUM-95" edge="1">
          <mxGeometry relative="1" as="geometry">
            <Array as="points" />
          </mxGeometry>
        </mxCell>
        <mxCell id="pDtNUXajQN1vn_wXKqUM-94" value="&amp;lt;&amp;lt;extend&amp;gt;&amp;gt;" style="edgeLabel;html=1;align=center;verticalAlign=middle;resizable=0;points=[];" parent="pDtNUXajQN1vn_wXKqUM-93" vertex="1" connectable="0">
          <mxGeometry x="-0.0382" y="-4" relative="1" as="geometry">
            <mxPoint as="offset" />
          </mxGeometry>
        </mxCell>
        <mxCell id="pDtNUXajQN1vn_wXKqUM-95" value="&lt;font style=&quot;font-size: 10px;&quot;&gt;Управление &lt;br&gt;репетиторами&lt;/font&gt;" style="ellipse;whiteSpace=wrap;html=1;" parent="1" vertex="1">
          <mxGeometry x="1598.9999674479168" y="1061.0033170572917" width="130" height="35" as="geometry" />
        </mxCell>
        <mxCell id="pDtNUXajQN1vn_wXKqUM-96" value="&lt;font size=&quot;1&quot;&gt;Зарегистрировать репетитора&lt;/font&gt;" style="ellipse;whiteSpace=wrap;html=1;" parent="1" vertex="1">
          <mxGeometry x="1823.4999674479168" y="954.0033170572917" width="140" height="40" as="geometry" />
        </mxCell>
        <mxCell id="pDtNUXajQN1vn_wXKqUM-97" value="&lt;span style=&quot;font-size: 10px;&quot;&gt;Изменить данные репетитора&lt;/span&gt;" style="ellipse;whiteSpace=wrap;html=1;" parent="1" vertex="1">
          <mxGeometry x="1835.75" y="1007" width="130" height="40" as="geometry" />
        </mxCell>
        <mxCell id="pDtNUXajQN1vn_wXKqUM-98" value="&lt;span style=&quot;font-size: 10px;&quot;&gt;Удалить репетитора&lt;/span&gt;" style="ellipse;whiteSpace=wrap;html=1;" parent="1" vertex="1">
          <mxGeometry x="1830.7499674479168" y="1068.0033170572917" width="130" height="40" as="geometry" />
        </mxCell>
        <mxCell id="pDtNUXajQN1vn_wXKqUM-106" style="rounded=0;orthogonalLoop=1;jettySize=auto;html=1;exitX=1;exitY=0.3333333333333333;exitDx=0;exitDy=0;exitPerimeter=0;entryX=0;entryY=0.5;entryDx=0;entryDy=0;" parent="1" source="pDtNUXajQN1vn_wXKqUM-108" target="pDtNUXajQN1vn_wXKqUM-87" edge="1">
          <mxGeometry relative="1" as="geometry" />
        </mxCell>
        <mxCell id="pDtNUXajQN1vn_wXKqUM-108" value="Гость" style="shape=umlActor;verticalLabelPosition=bottom;verticalAlign=top;html=1;outlineConnect=0;" parent="1" vertex="1">
          <mxGeometry x="1424.9999674479168" y="920.0033170572917" width="30" height="60" as="geometry" />
        </mxCell>
        <mxCell id="pDtNUXajQN1vn_wXKqUM-113" value="&lt;span style=&quot;font-size: 10px;&quot;&gt;Удалить ученика&lt;/span&gt;" style="ellipse;whiteSpace=wrap;html=1;" parent="1" vertex="1">
          <mxGeometry x="1579.4999674479168" y="349.0033170572917" width="130" height="40" as="geometry" />
        </mxCell>
        <mxCell id="pDtNUXajQN1vn_wXKqUM-114" value="" style="endArrow=classic;html=1;rounded=0;dashed=1;exitX=0.726;exitY=0.99;exitDx=0;exitDy=0;entryX=0.928;entryY=0.269;entryDx=0;entryDy=0;entryPerimeter=0;exitPerimeter=0;" parent="1" source="pDtNUXajQN1vn_wXKqUM-113" target="pDtNUXajQN1vn_wXKqUM-13" edge="1">
          <mxGeometry relative="1" as="geometry">
            <mxPoint x="1772" y="393" as="sourcePoint" />
            <mxPoint x="1702" y="461" as="targetPoint" />
          </mxGeometry>
        </mxCell>
        <mxCell id="pDtNUXajQN1vn_wXKqUM-115" value="&amp;lt;&amp;lt;extend&amp;gt;&amp;gt;" style="edgeLabel;resizable=0;html=1;;align=center;verticalAlign=middle;rotation=0;" parent="pDtNUXajQN1vn_wXKqUM-114" connectable="0" vertex="1">
          <mxGeometry relative="1" as="geometry" />
        </mxCell>
        <mxCell id="iwzX3I2XIy7Uz_yGRXkd-1" value="" style="endArrow=block;endSize=16;endFill=0;html=1;rounded=0;" parent="1" edge="1">
          <mxGeometry width="160" relative="1" as="geometry">
            <mxPoint x="1469" y="819" as="sourcePoint" />
            <mxPoint x="1443" y="915" as="targetPoint" />
          </mxGeometry>
        </mxCell>
        <mxCell id="iwzX3I2XIy7Uz_yGRXkd-2" value="" style="endArrow=block;endSize=16;endFill=0;html=1;rounded=0;" parent="1" edge="1">
          <mxGeometry width="160" relative="1" as="geometry">
            <mxPoint x="1482" y="1056" as="sourcePoint" />
            <mxPoint x="1459" y="1005" as="targetPoint" />
          </mxGeometry>
        </mxCell>
        <mxCell id="iwzX3I2XIy7Uz_yGRXkd-3" value="" style="endArrow=block;endSize=16;endFill=0;html=1;rounded=0;" parent="1" edge="1">
          <mxGeometry width="160" relative="1" as="geometry">
            <mxPoint x="1433" y="1256" as="sourcePoint" />
            <mxPoint x="1440" y="1012" as="targetPoint" />
          </mxGeometry>
        </mxCell>
      </root>
    </mxGraphModel>
  </diagram>
</mxfile>
